# xmcd
#
# Track frame offsets: 
#        150
#        16667
#        31652
#        40174
#        58239
#        77235
#        98539
#        120186
#        138198
#        161259
#        182222
#        201345
#        224428
#
# Disc length: 3300 seconds
#
# Revision: 0
# Processed by: cddbd v1.5.2PL0 Copyright (c) Steve Scherf et al.
# Submitted via: ExactAudioCopy v1.0b1
#
DISCID=a00ce20d
DTITLE=Bill Sims Jr and Mark LaVoie - American Blues Roots Duo
DYEAR=2008
DGENRE=Blues
TTITLE0=Hesitation Blues
TTITLE1=Going Down That Road Feeling
TTITLE2=Go Down Hannah
TTITLE3=Must Have Been The Devil
TTITLE4=Telephone Blues
TTITLE5=Going Uptown
TTITLE6=Diggin' My Potatoes
TTITLE7=Blues For Breakfast
TTITLE8=Meanest Old Woman
TTITLE9=Going Down To Louisiana
TTITLE10=Gotta Go Down
TTITLE11=Corn Bread Beans and Molasses
TTITLE12=Big Leg Woman
EXTD=
EXTT0=
EXTT1=
EXTT2=
EXTT3=
EXTT4=
EXTT5=
EXTT6=
EXTT7=
EXTT8=
EXTT9=
EXTT10=
EXTT11=
EXTT12=
PLAYORDER=
